<?xml version="1.0" standalone="no"?>
<!DOCTYPE svg PUBLIC "-//W3C//DTD SVG 20010904//EN"
 "http://www.w3.org/TR/2001/REC-SVG-20010904/DTD/svg10.dtd">
<svg version="1.0" xmlns="http://www.w3.org/2000/svg"
 width="96.000000pt" height="96.000000pt" viewBox="0 0 96.000000 96.000000"
 preserveAspectRatio="xMidYMid meet">
<metadata>
Created by potrace 1.11, written by Peter Selinger 2001-2013
</metadata>
<g transform="translate(0.000000,96.000000) scale(0.100000,-0.100000)"
fill="#000000" stroke="none">
<path d="M340 875 c0 -20 -5 -25 -23 -25 -18 0 -23 -5 -23 -22 1 -16 -5 -24
-21 -26 -14 -2 -23 -11 -25 -25 -2 -14 -11 -23 -25 -25 -22 -3 -23 -8 -23 -98
0 -86 2 -94 19 -94 17 0 20 8 23 48 3 40 6 47 25 50 19 3 22 11 25 50 3 40 6
47 25 50 14 2 23 11 25 25 3 21 8 22 98 22 91 0 95 -1 98 -22 3 -17 10 -23 28
-23 19 0 24 -5 24 -25 0 -20 5 -25 25 -25 l25 0 0 -150 c0 -143 1 -150 20
-150 15 0 20 7 20 25 0 20 5 25 25 25 l25 0 0 123 c0 122 0 124 -22 123 -20
-1 -23 5 -26 47 -3 39 -6 47 -23 47 -14 0 -19 7 -19 25 0 20 -5 25 -25 25 -20
0 -25 5 -25 25 l0 25 -125 0 -125 0 0 -25z"/>
<path d="M250 485 c0 -68 2 -75 20 -75 18 0 20 7 20 75 0 68 -2 75 -20 75 -18
0 -20 -7 -20 -75z"/>
<path d="M290 184 c0 -24 -3 -25 -42 -22 -38 2 -43 0 -46 -20 -3 -19 -9 -22
-53 -22 -45 0 -49 -2 -49 -24 0 -19 -6 -25 -27 -28 -20 -2 -29 -9 -31 -25 -2
-15 -10 -23 -23 -23 -10 0 -19 -4 -19 -10 0 -7 167 -10 480 -10 313 0 480 3
480 10 0 6 -7 10 -15 10 -9 0 -15 9 -15 25 0 20 -5 25 -25 25 -20 0 -25 5 -25
25 0 23 -4 25 -44 25 -39 0 -45 3 -48 23 -2 12 -6 21 -10 20 -5 -2 -39 -3 -77
-3 -64 0 -69 -1 -64 -20 4 -16 0 -20 -21 -20 -21 0 -26 -5 -26 -25 0 -24 -2
-25 -75 -25 -73 0 -75 1 -75 25 0 20 -5 25 -25 25 -20 0 -25 5 -25 25 0 18 -5
25 -20 25 -13 0 -20 7 -20 20 0 16 -7 20 -30 20 -26 0 -30 -4 -30 -26z"/>
</g>
</svg>
